<svg height="24" width="24" viewBox="0 0 512 512" xmlns="http://www.w3.org/2000/svg">
   <path d="m373.6465149 289.5476379h-61.2558289v189.7456665l-33.7347107-.0000305v-189.745636h-61.1287994v-31.37677h156.119339zm133.7335815 108.9880371c-21.3193054-42.9439697-71.9799805-45.6103516-86.7124634-72.728302-16.2763367-43.9219055 50.8490906-51.8579102 83.0995178-22.2676086v-39.4264526c-13.7410278-8.8743286-35.590271-9.8278809-50.9179993-9.0001831-40.4500732 2.1843262-67.6317749 25.6871338-67.2262573 60.6980591-1.7426453 48.8711548 54.0643311 61.4549255 82.0871887 84.0719299 19.0316162 16.1492004 17.6693726 55.3132019-29.3473511 51.4010315-15.0501709-1.3822937-34.3663025-4.2957764-53.0340576-24.6832886v41.9417114c34.2955017 22.29245 93.2791138 18.2008667 113.8417053-8.592804 12.2207643-15.9240417 17.2571718-37.2548827 8.2097169-61.414093z"/>
   <path d="m178.9164124 397.8771362 17.4700012 60.6674805h52.6664429v-122.9455566c-24.9207764 8.6644287-53.5789795 7.3724976-79.5404053-7.5945435-64.1425781-36.9789429-64.1425781-129.9281006-.000061-166.9069824 58.3208008-33.6226196 130.2502441 1.7504272 142.8283081 64.0403442l62.4865112-.000061c-2.4333496-20.2295532-8.6228027-38.9351196-17.7116089-55.640625l35.4249878-62.904541-35.3077393-35.3077393-62.3120728 35.6037598c-10.0150146-5.6047974-20.62323-10.1500854-31.6339722-13.5203247l-18.8426514-68.1796875h-50.0192871l-18.3114014 66.7798462c-11.7113647 3.2211914-23.3220825 7.8920898-34.6424561 14.1226807l-59.3444214-33.335144-35.3077393 35.3078003 32.9293826 58.8726805c-6.2023315 11.0975952-10.956665 22.8284912-14.2806396 34.8983765l-64.7449952 19.0175781v50.0193481l65.0929565 17.6815186c3.4159546 12.0096436 8.274292 23.6650391 14.5515137 34.6882935l-32.0770874 59.9284668 35.3077393 35.3077393 59.3304443-34.659668c11.7657471 6.3226928 23.8279114 10.9576416 35.9882508 14.0589599z"/>
</svg>